<svg width="60" height="60" viewBox="0 0 60 60" fill="none" xmlns="http://www.w3.org/2000/svg">
<g clip-path="url(#clip0_2_77)">
<path d="M57.1875 0H2.8125C1.2592 0 0 1.2592 0 2.8125V57.1875C0 58.7408 1.2592 60 2.8125 60H57.1875C58.7408 60 60 58.7408 60 57.1875V2.8125C60 1.2592 58.7408 0 57.1875 0Z" fill="#979797"/>
<path fill-rule="evenodd" clip-rule="evenodd" d="M34.8104 46.6256V53.2003C35.8756 53.7478 37.1353 54.1589 38.5897 54.4327C40.0441 54.7069 41.577 54.8438 43.1884 54.8438C44.7588 54.8438 46.2507 54.6933 47.6639 54.3919C49.0777 54.0905 50.3166 53.5941 51.382 52.9022C52.447 52.2103 53.2903 51.3066 53.9119 50.19C54.533 49.0739 54.8438 47.6939 54.8438 46.0503C54.8438 44.8587 54.6661 43.8143 54.3112 42.9172C53.9559 42.02 53.4441 41.2222 52.7747 40.5236C52.1058 39.8251 51.3033 39.1985 50.3681 38.6438C49.4325 38.089 48.3778 37.5651 47.2031 37.072C46.3429 36.7159 45.5713 36.3701 44.8885 36.0345C44.2057 35.6989 43.6253 35.3565 43.1474 35.0072C42.6694 34.6579 42.3007 34.2881 42.0413 33.8978C41.7818 33.5074 41.652 33.0657 41.652 32.5726C41.652 32.1206 41.7681 31.7131 42.0003 31.3501C42.2325 30.9872 42.5602 30.6756 42.9835 30.4153C43.4069 30.1551 43.9258 29.9531 44.5403 29.8093C45.1548 29.6654 45.8376 29.5935 46.5887 29.5935C47.1352 29.5935 47.7117 29.6346 48.3197 29.7168C48.9272 29.799 49.5384 29.9257 50.153 30.0969C50.7675 30.2681 51.3647 30.4838 51.9455 30.744C52.5258 31.0043 53.0616 31.3056 53.5533 31.648V25.505C52.5563 25.1215 51.4673 24.8373 50.2861 24.6524C49.1048 24.4674 47.7497 24.375 46.22 24.375C44.6632 24.375 43.1884 24.5428 41.7954 24.8783C40.4025 25.2139 39.1769 25.7378 38.1186 26.4501C37.0602 27.1623 36.2238 28.0697 35.6093 29.1723C34.9948 30.2749 34.6875 31.5932 34.6875 33.1273C34.6875 35.086 35.2508 36.757 36.3774 38.1404C37.5041 39.5238 39.2145 40.6949 41.5087 41.6536C42.41 42.0234 43.2498 42.3864 44.0282 42.7425C44.8066 43.0987 45.4792 43.4685 46.0459 43.852C46.6126 44.2355 47.0597 44.6533 47.3873 45.1052C47.7155 45.5573 47.8791 46.0709 47.8791 46.6462C47.8791 47.0709 47.7769 47.4647 47.572 47.8275C47.3672 48.1903 47.0564 48.5053 46.6399 48.7725C46.2234 49.0397 45.7045 49.2488 45.0831 49.3992C44.4618 49.5497 43.7346 49.6252 42.9016 49.6252C41.4813 49.6252 40.0748 49.3753 38.6819 48.8752C37.289 48.3755 35.9985 47.6255 34.8104 46.6256V46.6256ZM23.7668 30.2599H32.3438V24.8438H8.4375V30.2599H16.9725V54.375H23.7668V30.2599Z" fill="#1E1F20"/>
</g>
<defs>
<clipPath id="clip0_2_77">
<rect width="60" height="60" fill="white"/>
</clipPath>
</defs>
</svg>
