<svg width="69" height="60" viewBox="0 0 69 60" fill="none" xmlns="http://www.w3.org/2000/svg">
<g clip-path="url(#clip0_2_80)">
<path d="M34.0541 36.0107C37.4067 36.0107 40.1246 33.3196 40.1246 30C40.1246 26.6804 37.4067 23.9893 34.0541 23.9893C30.7014 23.9893 27.9836 26.6804 27.9836 30C27.9836 33.3196 30.7014 36.0107 34.0541 36.0107Z" fill="#979797"/>
<path d="M34.054 42.3147C52.0438 42.3147 66.6275 36.8012 66.6275 30C66.6275 23.1989 52.0438 17.6854 34.054 17.6854C16.0642 17.6854 1.48059 23.1989 1.48059 30C1.48059 36.8012 16.0642 42.3147 34.054 42.3147Z" stroke="#979797" stroke-width="3"/>
<path d="M23.2831 36.1573C32.278 51.5835 44.3921 61.3322 50.3407 57.9316C56.2893 54.531 53.8198 39.2689 44.8249 23.8427C35.83 8.41653 23.7159 -1.33213 17.7673 2.06846C11.8187 5.46905 14.2882 20.7311 23.2831 36.1573Z" stroke="#979797" stroke-width="3"/>
<path d="M23.2832 23.8427C14.2883 39.2689 11.8187 54.531 17.7673 57.9316C23.7159 61.3322 35.83 51.5835 44.8249 36.1574C53.8198 20.7312 56.2893 5.46908 50.3408 2.06849C44.3922 -1.3321 32.2781 8.41656 23.2832 23.8427Z" stroke="#979797" stroke-width="3"/>
</g>
<defs>
<clipPath id="clip0_2_80">
<rect width="68.1081" height="60" fill="white"/>
</clipPath>
</defs>
</svg>
