<svg width="500" height="500" viewBox="0 0 500 500" fill="none" xmlns="http://www.w3.org/2000/svg">
<circle cx="250" cy="250" r="250" fill="#2467DF"/>
<path d="M82.715 294C79.9992 294 77.8967 293.255 76.4075 291.766C74.9182 290.189 74.1736 288.043 74.1736 285.327V209.506C74.1736 206.703 74.8744 204.6 76.2761 203.198C77.7653 201.709 79.8678 200.965 82.5836 200.965C85.2993 200.965 87.358 201.709 88.7596 203.198C90.2489 204.6 90.9935 206.703 90.9935 209.506V279.677H129.101C131.467 279.677 133.262 280.29 134.489 281.516C135.803 282.743 136.46 284.495 136.46 286.773C136.46 289.05 135.803 290.846 134.489 292.16C133.262 293.387 131.467 294 129.101 294H82.715ZM184.481 295.314C175.545 295.314 167.705 293.343 160.959 289.401C154.301 285.459 149.133 279.94 145.453 272.844C141.774 265.66 139.934 257.25 139.934 247.614C139.934 240.343 140.985 233.816 143.088 228.034C145.19 222.165 148.169 217.171 152.023 213.054C155.966 208.849 160.652 205.651 166.084 203.461C171.603 201.184 177.735 200.045 184.481 200.045C193.504 200.045 201.345 202.016 208.002 205.958C214.66 209.813 219.829 215.288 223.508 222.384C227.188 229.48 229.027 237.846 229.027 247.482C229.027 254.753 227.976 261.324 225.874 267.193C223.771 273.063 220.749 278.1 216.807 282.305C212.952 286.51 208.265 289.751 202.746 292.029C197.315 294.219 191.226 295.314 184.481 295.314ZM184.481 280.859C190.175 280.859 194.993 279.545 198.935 276.917C202.965 274.289 206.031 270.478 208.134 265.485C210.324 260.491 211.419 254.534 211.419 247.614C211.419 237.101 209.054 228.954 204.323 223.172C199.68 217.39 193.066 214.499 184.481 214.499C178.874 214.499 174.056 215.813 170.026 218.442C165.996 220.982 162.886 224.749 160.696 229.742C158.594 234.648 157.542 240.605 157.542 247.614C157.542 258.039 159.908 266.186 164.638 272.055C169.369 277.925 175.983 280.859 184.481 280.859ZM290.677 295.314C280.428 295.314 271.755 293.387 264.659 289.532C257.651 285.678 252.307 280.202 248.627 273.106C244.948 266.011 243.108 257.601 243.108 247.876C243.108 240.518 244.16 233.904 246.262 228.034C248.452 222.165 251.562 217.171 255.592 213.054C259.709 208.849 264.703 205.651 270.572 203.461C276.442 201.184 283.1 200.045 290.546 200.045C295.452 200.045 300.358 200.658 305.263 201.884C310.257 203.023 314.944 204.994 319.324 207.798C320.813 208.761 321.777 209.944 322.215 211.346C322.74 212.747 322.828 214.193 322.478 215.682C322.127 217.084 321.47 218.31 320.507 219.361C319.543 220.413 318.316 221.07 316.827 221.332C315.425 221.595 313.849 221.245 312.097 220.281C308.768 218.354 305.395 216.952 301.978 216.076C298.562 215.2 294.751 214.762 290.546 214.762C284.063 214.762 278.588 216.076 274.12 218.704C269.652 221.245 266.28 224.968 264.002 229.874C261.812 234.78 260.717 240.781 260.717 247.876C260.717 258.652 263.301 266.843 268.47 272.449C273.638 278.056 281.304 280.859 291.466 280.859C294.97 280.859 298.518 280.509 302.11 279.808C305.701 279.107 309.206 278.144 312.622 276.917L309.337 284.407V256.418H294.882C292.692 256.418 290.984 255.848 289.758 254.71C288.619 253.571 288.049 252.038 288.049 250.11C288.049 248.095 288.619 246.562 289.758 245.511C290.984 244.46 292.692 243.934 294.882 243.934H316.564C318.754 243.934 320.419 244.548 321.558 245.774C322.784 246.913 323.397 248.577 323.397 250.767V282.699C323.397 284.626 323.003 286.247 322.215 287.561C321.514 288.875 320.331 289.839 318.667 290.452C314.812 291.854 310.388 293.036 305.395 294C300.401 294.876 295.496 295.314 290.677 295.314ZM384.413 295.314C375.477 295.314 367.637 293.343 360.891 289.401C354.233 285.459 349.065 279.94 345.385 272.844C341.706 265.66 339.866 257.25 339.866 247.614C339.866 240.343 340.918 233.816 343.02 228.034C345.123 222.165 348.101 217.171 351.956 213.054C355.898 208.849 360.585 205.651 366.016 203.461C371.535 201.184 377.667 200.045 384.413 200.045C393.436 200.045 401.277 202.016 407.935 205.958C414.593 209.813 419.761 215.288 423.441 222.384C427.12 229.48 428.96 237.846 428.96 247.482C428.96 254.753 427.908 261.324 425.806 267.193C423.703 273.063 420.681 278.1 416.739 282.305C412.884 286.51 408.197 289.751 402.678 292.029C397.247 294.219 391.159 295.314 384.413 295.314ZM384.413 280.859C390.107 280.859 394.925 279.545 398.868 276.917C402.897 274.289 405.964 270.478 408.066 265.485C410.256 260.491 411.351 254.534 411.351 247.614C411.351 237.101 408.986 228.954 404.255 223.172C399.612 217.39 392.998 214.499 384.413 214.499C378.806 214.499 373.988 215.813 369.958 218.442C365.929 220.982 362.819 224.749 360.629 229.742C358.526 234.648 357.475 240.605 357.475 247.614C357.475 258.039 359.84 266.186 364.571 272.055C369.301 277.925 375.915 280.859 384.413 280.859Z" fill="white"/>
</svg>
