<svg width="67" height="62" viewBox="0 0 67 62" fill="none" xmlns="http://www.w3.org/2000/svg">
<path d="M62.4976 1L37.2438 19.7564L41.9138 8.69036L62.4976 1Z" fill="#706D6D" stroke="#706D6D" stroke-linecap="round" stroke-linejoin="round"/>
<path d="M4.198 1L29.2488 19.934L24.8071 8.69036L4.198 1Z" fill="#767676" stroke="#767676" stroke-linecap="round" stroke-linejoin="round"/>
<path d="M53.4112 44.4772L46.6853 54.7817L61.0762 58.7411L65.2132 44.7056L53.4112 44.4772Z" fill="#767676" stroke="#767676" stroke-linecap="round" stroke-linejoin="round"/>
<path d="M1.53308 44.7056L5.64476 58.7411L20.0356 54.7817L13.3097 44.4772L1.53308 44.7056Z" fill="#767676" stroke="#767676" stroke-linecap="round" stroke-linejoin="round"/>
<path d="M19.2234 27.066L15.2133 33.132L29.5026 33.7665L28.995 18.4112L19.2234 27.066Z" fill="#767676" stroke="#767676" stroke-linecap="round" stroke-linejoin="round"/>
<path d="M47.4722 27.066L37.5737 18.2335L37.2438 33.7665L51.5077 33.132L47.4722 27.066Z" fill="#767676" stroke="#767676" stroke-linecap="round" stroke-linejoin="round"/>
<path d="M20.0355 54.7817L28.6142 50.5939L21.203 44.8071L20.0355 54.7817Z" fill="#767676" stroke="#767676" stroke-linecap="round" stroke-linejoin="round"/>
<path d="M38.0813 50.5939L46.6854 54.7817L45.4925 44.8071L38.0813 50.5939Z" fill="#767676" stroke="#767676" stroke-linecap="round" stroke-linejoin="round"/>
<path d="M46.6854 54.7818L38.0813 50.594L38.7666 56.2031L38.6904 58.5635L46.6854 54.7818Z" fill="#D7C1B3" stroke="#D7C1B3" stroke-linecap="round" stroke-linejoin="round"/>
<path d="M20.0356 54.7818L28.0306 58.5635L27.9798 56.2031L28.6143 50.594L20.0356 54.7818Z" fill="#D7C1B3" stroke="#D7C1B3" stroke-linecap="round" stroke-linejoin="round"/>
<path d="M28.1574 41.1015L21 38.9949L26.0508 36.6853L28.1574 41.1015Z" fill="#233447" stroke="#233447" stroke-linecap="round" stroke-linejoin="round"/>
<path d="M38.5381 41.1015L40.6447 36.6853L45.7208 38.9949L38.5381 41.1015Z" fill="#233447" stroke="#233447" stroke-linecap="round" stroke-linejoin="round"/>
<path d="M20.0357 54.7817L21.254 44.4772L13.3098 44.7056L20.0357 54.7817Z" fill="#5C5B5B" stroke="#5C5B5B" stroke-linecap="round" stroke-linejoin="round"/>
<path d="M45.467 44.4772L46.6853 54.7817L53.4112 44.7056L45.467 44.4772Z" fill="#5C5B5B" stroke="#5C5B5B" stroke-linecap="round" stroke-linejoin="round"/>
<path d="M51.5077 33.132L37.2438 33.7665L38.5636 41.1015L40.6702 36.6853L45.7463 38.9949L51.5077 33.132Z" fill="#5C5B5B" stroke="#5C5B5B" stroke-linecap="round" stroke-linejoin="round"/>
<path d="M21.0002 38.9949L26.0763 36.6853L28.1575 41.1015L29.5027 33.7665L15.2134 33.132L21.0002 38.9949Z" fill="#5C5B5B" stroke="#5C5B5B" stroke-linecap="round" stroke-linejoin="round"/>
<path d="M15.2133 33.132L21.2031 44.8071L21.0001 38.9949L15.2133 33.132Z" fill="#706D6D" stroke="#706D6D" stroke-linecap="round" stroke-linejoin="round"/>
<path d="M45.7462 38.9949L45.4924 44.8071L51.5077 33.132L45.7462 38.9949Z" fill="#706D6D" stroke="#706D6D" stroke-linecap="round" stroke-linejoin="round"/>
<path d="M29.5025 33.7665L28.1573 41.1015L29.8325 49.7564L30.2132 38.3604L29.5025 33.7665Z" fill="#706D6D" stroke="#706D6D" stroke-linecap="round" stroke-linejoin="round"/>
<path d="M37.2436 33.7665L36.5583 38.335L36.8629 49.7564L38.5634 41.1015L37.2436 33.7665Z" fill="#706D6D" stroke="#706D6D" stroke-linecap="round" stroke-linejoin="round"/>
<path d="M38.5635 41.1015L36.863 49.7564L38.0813 50.5939L45.4925 44.8071L45.7463 38.9949L38.5635 41.1015Z" fill="#979797" stroke="#979797" stroke-linecap="round" stroke-linejoin="round"/>
<path d="M21 38.9949L21.203 44.8071L28.6142 50.5939L29.8325 49.7564L28.1574 41.1015L21 38.9949Z" fill="#979797" stroke="#979797" stroke-linecap="round" stroke-linejoin="round"/>
<path d="M38.6905 58.5635L38.7666 56.2031L38.1321 55.6447H28.5636L27.9798 56.2031L28.0306 58.5635L20.0356 54.7817L22.8275 57.066L28.4874 61H38.2082L43.8935 57.066L46.6854 54.7817L38.6905 58.5635Z" fill="#C0AD9E" stroke="#C0AD9E" stroke-linecap="round" stroke-linejoin="round"/>
<path d="M38.0814 50.594L36.8631 49.7564H29.8326L28.6144 50.594L27.9799 56.2031L28.5636 55.6447H38.1321L38.7667 56.2031L38.0814 50.594Z" fill="#161616" stroke="#161616" stroke-linecap="round" stroke-linejoin="round"/>
<path d="M63.5635 20.9746L65.7209 10.6193L62.4976 1L38.0813 19.1218L47.4722 27.066L60.7463 30.9492L63.6904 27.5229L62.4214 26.6091L64.4519 24.7564L62.8783 23.5381L64.9087 21.9899L63.5635 20.9746Z" fill="#1E1F20" stroke="#1E1F20" stroke-linecap="round" stroke-linejoin="round"/>
<path d="M1 10.6193L3.15736 20.9746L1.7868 21.9899L3.81726 23.5381L2.26904 24.7564L4.29949 26.6091L3.03046 27.5229L5.94924 30.9492L19.2234 27.066L28.6142 19.1218L4.19797 1L1 10.6193Z" fill="#1E1F20" stroke="#1E1F20" stroke-linecap="round" stroke-linejoin="round"/>
<path d="M60.7462 30.9493L47.4721 27.066L51.5077 33.132L45.4924 44.8071L53.4112 44.7056H65.2132L60.7462 30.9493Z" fill="#979797" stroke="#979797" stroke-linecap="round" stroke-linejoin="round"/>
<path d="M19.2234 27.066L5.94933 30.9493L1.53308 44.7056H13.3097L21.2031 44.8071L15.2133 33.132L19.2234 27.066Z" fill="#979797" stroke="#979797" stroke-linecap="round" stroke-linejoin="round"/>
<path d="M37.2437 33.7666L38.0812 19.1219L41.9391 8.6904H24.8071L28.6142 19.1219L29.5026 33.7666L29.8071 38.3858L29.8325 49.7564H36.863L36.9137 38.3858L37.2437 33.7666Z" fill="#979797" stroke="#979797" stroke-linecap="round" stroke-linejoin="round"/>
</svg>
