<svg width="297" height="60" viewBox="0 0 297 60" fill="none" xmlns="http://www.w3.org/2000/svg">
<g clip-path="url(#clip0_2_60)">
<path d="M197.215 0.0248108H248.889V9.52501H228.39V59.5043H218.14V9.52501H197.215V0.0248108Z" fill="#979797"/>
<path d="M112.23 0.0248108V9.52501H70.8101V24.8079H104.12V34.3081H70.8101V50.0041H112.23V59.5043H60.5607V9.52501H60.5564V0.0248108H112.23Z" fill="#979797"/>
<path d="M138.033 0.0496063H124.62L172.663 59.5291H186.115L162.091 29.8098L186.077 0.0949854L172.663 0.115633L155.375 21.5023L138.033 0.0496063Z" fill="#979797"/>
<path d="M151.797 42.5361L145.08 34.2172L124.581 59.5744H138.033L151.797 42.5361Z" fill="#979797"/>
<path fill-rule="evenodd" clip-rule="evenodd" d="M60.9198 59.5042L12.8117 0H0V59.4794H10.2494V12.7137L48.044 59.5042H60.9198Z" fill="#979797"/>
<path d="M251.193 59.141C250.442 59.141 249.804 58.882 249.269 58.364C248.735 57.8459 248.47 57.2188 248.477 56.4758C248.47 55.7533 248.735 55.133 249.269 54.6149C249.804 54.0969 250.442 53.8379 251.193 53.8379C251.915 53.8379 252.547 54.0969 253.081 54.6149C253.624 55.133 253.894 55.7533 253.901 56.4758C253.894 56.9666 253.769 57.4164 253.519 57.8186C253.262 58.2276 252.936 58.548 252.526 58.7798C252.123 59.0183 251.679 59.141 251.193 59.141Z" fill="#979797"/>
<path d="M268.687 34.084H273.229V51.5135C273.222 53.1153 272.874 54.4854 272.194 55.6374C271.506 56.7893 270.555 57.6686 269.333 58.2889C268.117 58.9023 266.694 59.216 265.075 59.216C263.596 59.216 262.27 58.9501 261.089 58.4321C259.909 57.914 258.971 57.137 258.284 56.1145C257.589 55.092 257.248 53.8174 257.248 52.2905H261.798C261.805 52.9586 261.957 53.5379 262.249 54.0218C262.54 54.5058 262.943 54.8738 263.457 55.1329C263.978 55.3919 264.575 55.5215 265.249 55.5215C265.978 55.5215 266.603 55.3715 267.11 55.0647C267.617 54.7648 268.006 54.3149 268.277 53.7151C268.541 53.1221 268.68 52.3859 268.687 51.5135V34.084Z" fill="#979797"/>
<path d="M291.916 40.9003C291.806 39.8438 291.319 39.0191 290.472 38.4329C289.617 37.8398 288.514 37.5467 287.159 37.5467C286.208 37.5467 285.389 37.6899 284.708 37.9694C284.027 38.2556 283.5 38.6373 283.138 39.1213C282.778 39.6053 282.597 40.1574 282.583 40.7777C282.583 41.2958 282.708 41.7456 282.951 42.1205C283.194 42.5022 283.52 42.8226 283.944 43.0816C284.36 43.3474 284.826 43.5655 285.333 43.7428C285.847 43.92 286.361 44.07 286.874 44.1927L289.242 44.7721C290.194 44.9902 291.118 45.2834 292 45.6582C292.882 46.0263 293.68 46.4966 294.381 47.0624C295.083 47.6282 295.639 48.3098 296.048 49.1073C296.458 49.9048 296.667 50.8386 296.667 51.9156C296.667 53.3675 296.292 54.6421 295.534 55.7464C294.777 56.8438 293.687 57.7027 292.257 58.323C290.833 58.9365 289.111 59.25 287.083 59.25C285.125 59.25 283.416 58.9501 281.979 58.3503C280.534 57.7573 279.409 56.8847 278.596 55.7395C277.784 54.5944 277.346 53.197 277.284 51.5543H281.784C281.847 52.4131 282.125 53.1289 282.597 53.7083C283.076 54.2809 283.701 54.7035 284.465 54.9898C285.236 55.2692 286.097 55.4124 287.048 55.4124C288.042 55.4124 288.916 55.2624 289.673 54.9693C290.423 54.6762 291.013 54.2673 291.437 53.7356C291.868 53.2107 292.083 52.5904 292.09 51.8815C292.083 51.234 291.888 50.6954 291.513 50.2728C291.132 49.8503 290.604 49.4958 289.93 49.2095C289.25 48.9233 288.458 48.6642 287.555 48.4393L284.68 47.7167C282.604 47.1919 280.958 46.3944 279.756 45.3242C278.548 44.2541 277.95 42.8363 277.95 41.0572C277.95 39.5985 278.353 38.317 279.166 37.2196C279.971 36.1222 281.076 35.2701 282.472 34.6634C283.875 34.05 285.458 33.75 287.222 33.75C289.014 33.75 290.583 34.05 291.937 34.6634C293.291 35.2701 294.354 36.1153 295.125 37.1923C295.896 38.2693 296.298 39.503 296.32 40.9003H291.916Z" fill="#979797"/>
</g>
<defs>
<clipPath id="clip0_2_60">
<rect width="296.667" height="60" fill="white"/>
</clipPath>
</defs>
</svg>
