<svg width="104" height="60" viewBox="0 0 104 60" fill="none" xmlns="http://www.w3.org/2000/svg">
<path fill-rule="evenodd" clip-rule="evenodd" d="M97.8845 48.8069C53.7147 54.569 22.1885 61.4896 21.7222 33.0828C21.7222 33.0828 22.686 22.0759 36.2105 21.3828C36.2105 21.3828 36.6665 11.6069 46.9991 10.5C52.554 9.89999 58.8654 15.6103 59.5494 21.6207C59.5494 21.6207 73.2191 19.0965 73.8098 32.4C74.0171 37.0345 72.9704 44.9172 59.7878 44.5759C59.7878 44.5759 52.1602 43.5414 51.1238 31.769C48.9785 54.5586 81.9867 53.2345 82.4634 32.5345C82.6707 23.5862 76.9293 14.3793 63.9954 16.1069C56.9067 -1.69655 38.0345 -0.672417 31.008 15.8379C20.9656 15.8379 13.2862 23.5552 13.4002 33.631C13.7836 66.0621 59.0002 56.2862 97.8845 48.8069Z" fill="#979797"/>
</svg>
