<svg width="96" height="60" viewBox="0 0 96 60" fill="none" xmlns="http://www.w3.org/2000/svg">
<path d="M19.6603 11.602C35.3119 -3.72221 60.6882 -3.72221 76.3398 11.602L78.2234 13.4463C79.006 14.2125 79.006 15.4548 78.2234 16.221L71.7797 22.53C71.3884 22.9131 70.754 22.9131 70.3627 22.53L67.7705 19.992C56.8516 9.30143 39.1485 9.30143 28.2295 19.992L25.4535 22.7099C25.0622 23.093 24.4278 23.093 24.0365 22.7099L17.5928 16.401C16.8102 15.6348 16.8102 14.3925 17.5928 13.6263L19.6603 11.602ZM89.666 24.6496L95.401 30.2646C96.1835 31.0308 96.1835 32.2731 95.401 33.0393L69.5417 58.3581C68.7591 59.1243 67.4903 59.1243 66.7078 58.3581C66.7077 58.3581 66.7077 58.3581 66.7077 58.3581L48.3544 40.3886C48.1588 40.1971 47.8416 40.1971 47.6459 40.3886C47.6459 40.3886 47.6459 40.3886 47.6459 40.3886L29.293 58.3581C28.5104 59.1243 27.2416 59.1243 26.459 58.3581C26.459 58.3581 26.459 58.3581 26.459 58.3581L0.599019 33.039C-0.18356 32.2728 -0.18356 31.0305 0.599019 30.2643L6.33397 24.6493C7.11655 23.8831 8.38537 23.8831 9.16794 24.6493L27.5215 42.619C27.7172 42.8105 28.0344 42.8105 28.23 42.619C28.23 42.619 28.23 42.619 28.23 42.619L46.5827 24.6493C47.3653 23.8831 48.6341 23.883 49.4167 24.6492C49.4167 24.6492 49.4167 24.6492 49.4167 24.6492L67.7703 42.619C67.9659 42.8105 68.2831 42.8105 68.4788 42.619L86.832 24.6496C87.6146 23.8834 88.8834 23.8834 89.666 24.6496V24.6496Z" fill="#979797"/>
</svg>
