<svg width="60" height="60" viewBox="0 0 60 60" fill="none" xmlns="http://www.w3.org/2000/svg">
<g clip-path="url(#clip0_204_390)">
<path d="M30 60C46.5685 60 60 46.5685 60 30C60 13.4315 46.5685 0 30 0C13.4315 0 0 13.4315 0 30C0 46.5685 13.4315 60 30 60Z" fill="#2467DF"/>
<path d="M9.92585 35.28C9.59995 35.28 9.34765 35.1906 9.16895 35.0119C8.99023 34.8227 8.90088 34.5651 8.90088 34.2392V25.1407C8.90088 24.8043 8.98498 24.552 9.15318 24.3837C9.33188 24.2051 9.58418 24.1158 9.91008 24.1158C10.236 24.1158 10.483 24.2051 10.6512 24.3837C10.8299 24.552 10.9193 24.8043 10.9193 25.1407V33.5612H15.4922C15.7761 33.5612 15.9915 33.6348 16.1387 33.7819C16.2964 33.9291 16.3752 34.1394 16.3752 34.4127C16.3752 34.686 16.2964 34.9015 16.1387 35.0592C15.9915 35.2064 15.7761 35.28 15.4922 35.28H9.92585ZM22.1378 35.4377C21.0654 35.4377 20.1246 35.2011 19.3151 34.7281C18.5162 34.2551 17.896 33.5928 17.4544 32.7413C17.0129 31.8792 16.7921 30.87 16.7921 29.7137C16.7921 28.8411 16.9182 28.0579 17.1706 27.3641C17.4228 26.6598 17.7803 26.0605 18.2428 25.5665C18.716 25.0619 19.2783 24.6781 19.9301 24.4153C20.5924 24.1421 21.3282 24.0054 22.1378 24.0054C23.2205 24.0054 24.1614 24.2419 24.9603 24.7149C25.7592 25.1775 26.3795 25.8345 26.821 26.6861C27.2626 27.5376 27.4833 28.5415 27.4833 29.6978C27.4833 30.5703 27.3572 31.3589 27.1049 32.0631C26.8526 32.7675 26.4899 33.372 26.0169 33.8766C25.5543 34.3812 24.9918 34.7701 24.3296 35.0435C23.6778 35.3063 22.9472 35.4377 22.1378 35.4377ZM22.1378 33.7031C22.821 33.7031 23.3992 33.5454 23.8722 33.23C24.3558 32.9147 24.7238 32.4573 24.9761 31.8582C25.2389 31.2589 25.3703 30.5441 25.3703 29.7137C25.3703 28.4521 25.0865 27.4745 24.5188 26.7806C23.9616 26.0868 23.168 25.7399 22.1378 25.7399C21.4649 25.7399 20.8868 25.8975 20.4032 26.213C19.9196 26.5178 19.5464 26.9699 19.2836 27.569C19.0313 28.1577 18.9051 28.8726 18.9051 29.7137C18.9051 30.9647 19.189 31.9423 19.7566 32.6466C20.3243 33.351 21.118 33.7031 22.1378 33.7031ZM34.8813 35.4377C33.6514 35.4377 32.6106 35.2064 31.7591 34.7438C30.9182 34.2813 30.2769 33.6242 29.8353 32.7727C29.3938 31.9213 29.173 30.9121 29.173 29.7451C29.173 28.8621 29.2992 28.0685 29.5515 27.3641C29.8143 26.6598 30.1875 26.0605 30.6711 25.5665C31.1651 25.0619 31.7644 24.6781 32.4687 24.4153C33.1731 24.1421 33.972 24.0054 34.8656 24.0054C35.4543 24.0054 36.043 24.0789 36.6316 24.2261C37.2309 24.3627 37.7933 24.5993 38.3189 24.9357C38.4976 25.0513 38.6133 25.1933 38.6658 25.3615C38.7288 25.5296 38.7394 25.7031 38.6974 25.8818C38.6553 26.0501 38.5764 26.1972 38.4609 26.3233C38.3452 26.4495 38.198 26.5284 38.0193 26.5598C37.851 26.5914 37.6619 26.5494 37.4517 26.4337C37.0522 26.2025 36.6474 26.0342 36.2374 25.9291C35.8275 25.824 35.3702 25.7714 34.8656 25.7714C34.0876 25.7714 33.4306 25.9291 32.8944 26.2445C32.3583 26.5494 31.9536 26.9961 31.6803 27.5849C31.4175 28.1736 31.2861 28.8937 31.2861 29.7451C31.2861 31.0382 31.5962 32.0211 32.2164 32.6939C32.8366 33.3667 33.7565 33.7031 34.976 33.7031C35.3964 33.7031 35.8222 33.6611 36.2532 33.5769C36.6842 33.4928 37.1048 33.3773 37.5147 33.23L37.1205 34.1288V30.7701H35.3859C35.1231 30.7701 34.9181 30.7017 34.771 30.5652C34.6343 30.4285 34.5659 30.2445 34.5659 30.0132C34.5659 29.7714 34.6343 29.5874 34.771 29.4613C34.9181 29.3352 35.1231 29.2721 35.3859 29.2721H37.9877C38.2505 29.2721 38.4503 29.3457 38.587 29.4929C38.7341 29.6295 38.8077 29.8292 38.8077 30.092V33.9239C38.8077 34.1551 38.7604 34.3496 38.6658 34.5073C38.5817 34.665 38.4398 34.7807 38.2401 34.8542C37.7775 35.0225 37.2466 35.1643 36.6474 35.28C36.0482 35.3851 35.4596 35.4377 34.8813 35.4377ZM46.1296 35.4377C45.0573 35.4377 44.1165 35.2011 43.307 34.7281C42.508 34.2551 41.8878 33.5928 41.4462 32.7413C41.0048 31.8792 40.784 30.87 40.784 29.7137C40.784 28.8411 40.9102 28.0579 41.1624 27.3641C41.4148 26.6598 41.7722 26.0605 42.2348 25.5665C42.7078 25.0619 43.2702 24.6781 43.922 24.4153C44.5842 24.1421 45.3201 24.0054 46.1296 24.0054C47.2124 24.0054 48.1533 24.2419 48.9522 24.7149C49.7512 25.1775 50.3714 25.8345 50.813 26.6861C51.2544 27.5376 51.4752 28.5415 51.4752 29.6978C51.4752 30.5703 51.349 31.3589 51.0968 32.0631C50.8444 32.7675 50.4818 33.372 50.0087 33.8766C49.5461 34.3812 48.9837 34.7701 48.3214 35.0435C47.6697 35.3063 46.9391 35.4377 46.1296 35.4377ZM46.1296 33.7031C46.8129 33.7031 47.391 33.5454 47.8642 33.23C48.3477 32.9147 48.7157 32.4573 48.968 31.8582C49.2308 31.2589 49.3622 30.5441 49.3622 29.7137C49.3622 28.4521 49.0784 27.4745 48.5106 26.7806C47.9535 26.0868 47.1598 25.7399 46.1296 25.7399C45.4568 25.7399 44.8786 25.8975 44.395 26.213C43.9115 26.5178 43.5383 26.9699 43.2755 27.569C43.0232 28.1577 42.897 28.8726 42.897 29.7137C42.897 30.9647 43.1808 31.9423 43.7486 32.6466C44.3162 33.351 45.1098 33.7031 46.1296 33.7031Z" fill="white"/>
</g>
<defs>
<clipPath id="clip0_204_390">
<rect width="60" height="60" fill="white"/>
</clipPath>
</defs>
</svg>
